<svg xmlns="http://www.w3.org/2000/svg" xmlns:xlink="http://www.w3.org/1999/xlink" version="1.1" style="enable-background:new 0 0 60 60;" xml:space="preserve" width="60" height="60"><rect id="backgroundrect" width="100%" height="100%" x="0" y="0" fill="none" stroke="none"/>
















<g class="currentLayer" style=""><title>Layer 1</title><g id="svg_1" class="" fill="#ffffff" fill-opacity="1">
	<path d="M12.786162674427032,46.49056500196457 h34.42767369747162 V13.509433805942535 H12.786162674427032 V46.49056500196457 z" id="svg_2" fill="#ffffff" fill-opacity="1"/>
	<path d="M13.534590363502502,12.075471580028534 c0.4131320843696603,0 0.7484276890754706,-0.32049055749177935 0.7484276890754706,-0.7169811129570007 V9.207547128200531 c0,-0.39649055546522194 -0.3352956047058108,-0.7169811129570007 -0.7484276890754706,-0.7169811129570007 S12.786162674427032,8.81105657273531 12.786162674427032,9.207547128200531 v2.150943338871002 C12.786162674427032,11.754981022536754 13.121458279132844,12.075471580028534 13.534590363502502,12.075471580028534 z" id="svg_3" fill="#ffffff" fill-opacity="1"/>
	<path d="M13.534590363502502,47.92452722787857 c-0.4131320843696603,0 -0.7484276890754706,0.32049055749177935 -0.7484276890754706,0.7169811129570007 v2.150943338871002 c0,0.39649055546522194 0.3352956047058108,0.7169811129570007 0.7484276890754706,0.7169811129570007 s0.7484276890754706,-0.32049055749177935 0.7484276890754706,-0.7169811129570007 v-2.150943338871002 C14.283018052577972,48.24501778537035 13.947722447872161,47.92452722787857 13.534590363502502,47.92452722787857 z" id="svg_4" fill="#ffffff" fill-opacity="1"/>
	<path d="M46.46540868282318,8.49056601524353 c-0.4131320843696603,0 -0.7484276890754706,0.32049055749177935 -0.7484276890754706,0.7169811129570007 v2.150943338871002 c0,0.39649055546522194 0.3352956047058108,0.7169811129570007 0.7484276890754706,0.7169811129570007 s0.7484276890754706,-0.32049055749177935 0.7484276890754706,-0.7169811129570007 V9.207547128200531 C47.21383637189865,8.81105657273531 46.87854076719284,8.49056601524353 46.46540868282318,8.49056601524353 z" id="svg_5" fill="#ffffff" fill-opacity="1"/>
	<path d="M46.46540868282318,47.92452722787857 c-0.4131320843696603,0 -0.7484276890754706,0.32049055749177935 -0.7484276890754706,0.7169811129570007 v2.150943338871002 c0,0.39649055546522194 0.3352956047058108,0.7169811129570007 0.7484276890754706,0.7169811129570007 s0.7484276890754706,-0.32049055749177935 0.7484276890754706,-0.7169811129570007 v-2.150943338871002 C47.21383637189865,48.24501778537035 46.87854076719284,47.92452722787857 46.46540868282318,47.92452722787857 z" id="svg_6" fill="#ffffff" fill-opacity="1"/>
	<path d="M49.45911943912506,14.943396031856537 h2.24528306722641 c0.4131320843696603,0 0.7484276890754706,-0.32049055749177935 0.7484276890754706,-0.7169811129570007 s-0.3352956047058108,-0.7169811129570007 -0.7484276890754706,-0.7169811129570007 h-2.24528306722641 c-0.4131320843696603,0 -0.7484276890754706,0.32049055749177935 -0.7484276890754706,0.7169811129570007 S49.045987354755404,14.943396031856537 49.45911943912506,14.943396031856537 z" id="svg_7" fill="#ffffff" fill-opacity="1"/>
	<path d="M10.540879607200623,13.509433805942535 H8.295596539974213 C7.882464455604554,13.509433805942535 7.547168850898743,13.829924363434316 7.547168850898743,14.226414918899536 s0.3352956047058108,0.7169811129570007 0.7484276890754706,0.7169811129570007 h2.24528306722641 c0.4131320843696603,0 0.7484276890754706,-0.32049055749177935 0.7484276890754706,-0.7169811129570007 S10.954011691570281,13.509433805942535 10.540879607200623,13.509433805942535 z" id="svg_8" fill="#ffffff" fill-opacity="1"/>
	<path d="M51.70440250635147,45.05660277605057 h-2.24528306722641 c-0.4131320843696603,0 -0.7484276890754706,0.32049055749177935 -0.7484276890754706,0.7169811129570007 s0.3352956047058108,0.7169811129570007 0.7484276890754706,0.7169811129570007 h2.24528306722641 c0.4131320843696603,0 0.7484276890754706,-0.32049055749177935 0.7484276890754706,-0.7169811129570007 S52.11753459072113,45.05660277605057 51.70440250635147,45.05660277605057 z" id="svg_9" fill="#ffffff" fill-opacity="1"/>
	<path d="M10.540879607200623,45.05660277605057 H8.295596539974213 c-0.4131320843696603,0 -0.7484276890754706,0.32049055749177935 -0.7484276890754706,0.7169811129570007 s0.3352956047058108,0.7169811129570007 0.7484276890754706,0.7169811129570007 h2.24528306722641 c0.4131320843696603,0 0.7484276890754706,-0.32049055749177935 0.7484276890754706,-0.7169811129570007 S10.954011691570281,45.05660277605057 10.540879607200623,45.05660277605057 z" id="svg_10" fill="#ffffff" fill-opacity="1"/>
</g><g id="svg_11">
</g><g id="svg_12">
</g><g id="svg_13">
</g><g id="svg_14">
</g><g id="svg_15">
</g><g id="svg_16">
</g><g id="svg_17">
</g><g id="svg_18">
</g><g id="svg_19">
</g><g id="svg_20">
</g><g id="svg_21">
</g><g id="svg_22">
</g><g id="svg_23">
</g><g id="svg_24">
</g><g id="svg_25">
</g></g></svg>