<?xml version="1.0" encoding="iso-8859-1"?>
<!-- Generator: Adobe Illustrator 18.0.0, SVG Export Plug-In . SVG Version: 6.00 Build 0)  -->
<!DOCTYPE svg PUBLIC "-//W3C//DTD SVG 1.1//EN" "http://www.w3.org/Graphics/SVG/1.1/DTD/svg11.dtd">
<svg version="1.1" id="Capa_1" xmlns="http://www.w3.org/2000/svg" xmlns:xlink="http://www.w3.org/1999/xlink" x="0px" y="0px"
	 viewBox="0 0 60 60" style="enable-background:new 0 0 60 60;" xml:space="preserve">
<g>
	<path d="M7,53h46V7H7V53z"/>
	<path d="M8,5c0.552,0,1-0.447,1-1V1c0-0.553-0.448-1-1-1S7,0.447,7,1v3C7,4.553,7.448,5,8,5z"/>
	<path d="M8,55c-0.552,0-1,0.447-1,1v3c0,0.553,0.448,1,1,1s1-0.447,1-1v-3C9,55.447,8.552,55,8,55z"/>
	<path d="M52,0c-0.552,0-1,0.447-1,1v3c0,0.553,0.448,1,1,1s1-0.447,1-1V1C53,0.447,52.552,0,52,0z"/>
	<path d="M52,55c-0.552,0-1,0.447-1,1v3c0,0.553,0.448,1,1,1s1-0.447,1-1v-3C53,55.447,52.552,55,52,55z"/>
	<path d="M56,9h3c0.552,0,1-0.447,1-1s-0.448-1-1-1h-3c-0.552,0-1,0.447-1,1S55.448,9,56,9z"/>
	<path d="M4,7H1C0.448,7,0,7.447,0,8s0.448,1,1,1h3c0.552,0,1-0.447,1-1S4.552,7,4,7z"/>
	<path d="M59,51h-3c-0.552,0-1,0.447-1,1s0.448,1,1,1h3c0.552,0,1-0.447,1-1S59.552,51,59,51z"/>
	<path d="M4,51H1c-0.552,0-1,0.447-1,1s0.448,1,1,1h3c0.552,0,1-0.447,1-1S4.552,51,4,51z"/>
</g>
<g>
</g>
<g>
</g>
<g>
</g>
<g>
</g>
<g>
</g>
<g>
</g>
<g>
</g>
<g>
</g>
<g>
</g>
<g>
</g>
<g>
</g>
<g>
</g>
<g>
</g>
<g>
</g>
<g>
</g>
</svg>
