<svg xmlns="http://www.w3.org/2000/svg" xmlns:xlink="http://www.w3.org/1999/xlink" version="1.1" style="enable-background:new 0 0 60 60;" xml:space="preserve" width="60" height="60"><rect id="backgroundrect" width="100%" height="100%" x="0" y="0" fill="none" stroke="none"/>
















<g class="currentLayer" style=""><title>Layer 1</title><g id="svg_1" class="">
	<path d="M12.786162555217743,46.4905669093132 h34.42767369747162 V13.509435713291168 H12.786162555217743 V46.4905669093132 z" id="svg_2"/>
	<path d="M13.534590244293213,12.075473487377167 c0.41313208436966,0 0.7484276890754706,-0.32049055749177935 0.7484276890754706,-0.7169811129570007 V9.207549035549164 c0,-0.3964905554652218 -0.3352956047058108,-0.7169811129570007 -0.7484276890754706,-0.7169811129570007 S12.786162555217743,8.811058480083943 12.786162555217743,9.207549035549164 v2.150943338871002 C12.786162555217743,11.754982929885387 13.121458159923554,12.075473487377167 13.534590244293213,12.075473487377167 z" id="svg_3"/>
	<path d="M13.534590244293213,47.9245291352272 c-0.41313208436966,0 -0.7484276890754706,0.32049055749177935 -0.7484276890754706,0.7169811129570007 v2.150943338871002 c0,0.3964905554652218 0.3352956047058108,0.7169811129570007 0.7484276890754706,0.7169811129570007 s0.7484276890754706,-0.32049055749177935 0.7484276890754706,-0.7169811129570007 v-2.150943338871002 C14.283017933368683,48.245019692718984 13.947722328662872,47.9245291352272 13.534590244293213,47.9245291352272 z" id="svg_4"/>
	<path d="M46.46540856361389,8.490567922592163 c-0.41313208436966,0 -0.7484276890754706,0.32049055749177935 -0.7484276890754706,0.7169811129570007 v2.150943338871002 c0,0.3964905554652218 0.3352956047058108,0.7169811129570007 0.7484276890754706,0.7169811129570007 s0.7484276890754706,-0.32049055749177935 0.7484276890754706,-0.7169811129570007 V9.207549035549164 C47.21383625268936,8.811058480083943 46.87854064798355,8.490567922592163 46.46540856361389,8.490567922592163 z" id="svg_5"/>
	<path d="M46.46540856361389,47.9245291352272 c-0.41313208436966,0 -0.7484276890754706,0.32049055749177935 -0.7484276890754706,0.7169811129570007 v2.150943338871002 c0,0.3964905554652218 0.3352956047058108,0.7169811129570007 0.7484276890754706,0.7169811129570007 s0.7484276890754706,-0.32049055749177935 0.7484276890754706,-0.7169811129570007 v-2.150943338871002 C47.21383625268936,48.245019692718984 46.87854064798355,47.9245291352272 46.46540856361389,47.9245291352272 z" id="svg_6"/>
	<path d="M49.45911931991577,14.94339793920517 h2.24528306722641 c0.41313208436966,0 0.7484276890754706,-0.32049055749177935 0.7484276890754706,-0.7169811129570007 s-0.3352956047058108,-0.7169811129570007 -0.7484276890754706,-0.7169811129570007 h-2.24528306722641 c-0.41313208436966,0 -0.7484276890754706,0.32049055749177935 -0.7484276890754706,0.7169811129570007 S49.045987235546114,14.94339793920517 49.45911931991577,14.94339793920517 z" id="svg_7"/>
	<path d="M10.540879487991333,13.509435713291168 H8.295596420764923 C7.882464336395264,13.509435713291168 7.547168731689453,13.829926270782948 7.547168731689453,14.226416826248169 s0.3352956047058108,0.7169811129570007 0.7484276890754706,0.7169811129570007 h2.24528306722641 c0.41313208436966,0 0.7484276890754706,-0.32049055749177935 0.7484276890754706,-0.7169811129570007 S10.954011572360992,13.509435713291168 10.540879487991333,13.509435713291168 z" id="svg_8"/>
	<path d="M51.70440238714218,45.0566046833992 h-2.24528306722641 c-0.41313208436966,0 -0.7484276890754706,0.32049055749177935 -0.7484276890754706,0.7169811129570007 s0.3352956047058108,0.7169811129570007 0.7484276890754706,0.7169811129570007 h2.24528306722641 c0.41313208436966,0 0.7484276890754706,-0.32049055749177935 0.7484276890754706,-0.7169811129570007 S52.11753447151184,45.0566046833992 51.70440238714218,45.0566046833992 z" id="svg_9"/>
	<path d="M10.540879487991333,45.0566046833992 H8.295596420764923 c-0.41313208436966,0 -0.7484276890754706,0.32049055749177935 -0.7484276890754706,0.7169811129570007 s0.3352956047058108,0.7169811129570007 0.7484276890754706,0.7169811129570007 h2.24528306722641 c0.41313208436966,0 0.7484276890754706,-0.32049055749177935 0.7484276890754706,-0.7169811129570007 S10.954011572360992,45.0566046833992 10.540879487991333,45.0566046833992 z" id="svg_10"/>
</g><g id="svg_11">
</g><g id="svg_12">
</g><g id="svg_13">
</g><g id="svg_14">
</g><g id="svg_15">
</g><g id="svg_16">
</g><g id="svg_17">
</g><g id="svg_18">
</g><g id="svg_19">
</g><g id="svg_20">
</g><g id="svg_21">
</g><g id="svg_22">
</g><g id="svg_23">
</g><g id="svg_24">
</g><g id="svg_25">
</g></g></svg>